,
.   http://www.scenetime.com/signup.php  ---&gt;  Hottest scene tracker on the net !!!  

    Join Now   http://www.scenetime.com/signup.php

    seed back for speed


 



...................................NFO:.................................................30 Minutes Or Less 2011 R5 LINE XVID - TA

[b]***INTERNAL RELEASE*** DO NOT UPLOAD THIS, OR ANY PART OF THIS ENCODE TO ANY OTHER SITE UNTIL REMOVED FROM VIP SECTION[/b]

[img]http://trackeraccess.org/covers/pics/a2393c1cd4322942799678470f4f1490.jpg[/img]

Plot:
Two fledgling criminals kidnap a pizza delivery guy, strap a bomb to his chest, and inform him that he has mere hours to rob a bank or else...
 
http://www.imdb.com/title/tt1622547/

General
Complete name                    : 30 Minutes Or Less 2011 R5 LINE XVID - TA.avi
Format                           : AVI
Format/Info                      : Audio Video Interleave
File size                        : 696 MiB
Duration                         : 1h 19mn
Overall bit rate                 : 1 221 Kbps
Sources                          : Video, Russian
                                   Audio, Our own
Video
ID                               : 0
Format                           : MPEG-4 Visual
Format profile                   : Advanced Simple@L5
Format settings, BVOP            : 2
Format settings, QPel            : No
Format settings, GMC             : No warppoints
Format settings, Matrix          : Default (H.263)
Codec ID                         : XVID
Codec ID/Hint                    : XviD
Duration                         : 1h 19mn
Bit rate                         : 1 084 Kbps
Width                            : 720 pixels
Height                           : 304 pixels
Display aspect ratio             : 2.35:1
Frame rate                       : 25.000 fps
Color space                      : YUV
Chroma subsampling               : 4:2:0
Bit depth                        : 8 bits
Scan type                        : Progressive
Compression mode                 : Lossy
Bits/(Pixel*Frame)               : 0.198
Stream size                      : 618 MiB (89%)
Writing library                  : XviD 63

Audio
ID                               : 1
Format                           : MPEG Audio
Format version                   : Version 1
Format profile                   : Layer 3
Mode                             : Joint stereo
Mode extension                   : MS Stereo
Codec ID                         : 55
Codec ID/Hint                    : MP3
Duration                         : 1h 19mn
Bit rate mode                    : Constant
Bit rate                         : 128 Kbps
Channel(s)                       : 2 channels
Sampling rate                    : 44.1 KHz
Compression mode                 : Lossy
Stream size                      : 73.0 MiB (10%)
Alignment                        : Aligned on interleaves
Interleave, duration             : 40 ms (1.00 video frame)
Writing library                  : LAME3.98r
Encoding settings                : -m j -V 4 -q 2 -lowpass 17 -b 128

Notes:
Just adjusted the colors and contrast a bit and added our our sweet audio. (thanks to those who helped out)

Greets:
All groups (past and present) P2P and Scene

Screens:
        [img]http://www.shotpix.com/images/47270351469392488135.png[/img]
        [img]http://www.shotpix.com/images/03372871567495271483.png[/img]
        [img]http://www.shotpix.com/images/79181245166834280735.png[/img]
        [img]http://www.shotpix.com/images/51881956452482564388.png[/img]
        [img]http://www.shotpix.com/images/11351763911725662757.png[/img]

Enjoy,
TA-rg
[img]http://imageshack.us/m/221/9655/targ.png[/img]